PathFileType	4	(x/y/z)	S10_PSF_T11
DataRate	CameraRate	NumFrames	NumMarkers	Units	OrigDataRate	OrigDataStartFrame	OrigNumFrames
240	240	7	51	mm	240	173	460
Frame#	Time	Sternum			R.Acromium			L.Acromium			Top.Head			R.ASIS			L.ASIS			R.PSIS			L.PSIS			R.Great.Tro			L.Great.Tro			R.Iliac.Crest			L.Iliac.Crest			V.Sacral			R.Thigh.Upper.Post			R.Thigh.Lower.Ant			R.Thigh.Lower.Post			R.Thigh.Upper.Ant			R.Knee.Lat			R.Knee.Med			R.Shank.Upper.Post			R.Shank.Lower.Ant			R.Shank.Lower.Post			R.Shank.Upper.Ant			R.Ankle.Lat			R.Ankle.Med			R.Heel.Upper			R.Heel.Med			R.Heel.Lat			R.Toe.Lat			R.Toe.Med			R.Toe.Tip			L.Thigh.Upper.Post			L.Thigh.Lower.Ant			L.Thigh.Lower.Post			L.Thigh.Upper.Ant			L.Knee.Lat			L.Knee.Med			L.Shank.Upper.Post			L.Shank.Lower.Ant			L.Shank.Lower.Post			L.Shank.Upper.Ant			L.Ankle.Lat			L.Ankle.Med			L.Heel.Upper			L.Heel.Med			L.Heel.Lat			L.Toe.Lat			L.Toe.Med			L.Toe.Tip			Cervical.Spine			Back			
		X1	Y1	Z1	X2	Y2	Z2	X3	Y3	Z3	X4	Y4	Z4	X5	Y5	Z5	X6	Y6	Z6	X7	Y7	Z7	X8	Y8	Z8	X9	Y9	Z9	X10	Y10	Z10	X11	Y11	Z11	X12	Y12	Z12	X13	Y13	Z13	X14	Y14	Z14	X15	Y15	Z15	X16	Y16	Z16	X17	Y17	Z17	X18	Y18	Z18	X19	Y19	Z19	X20	Y20	Z20	X21	Y21	Z21	X22	Y22	Z22	X23	Y23	Z23	X24	Y24	Z24	X25	Y25	Z25	X26	Y26	Z26	X27	Y27	Z27	X28	Y28	Z28	X29	Y29	Z29	X30	Y30	Z30	X31	Y31	Z31	X32	Y32	Z32	X33	Y33	Z33	X34	Y34	Z34	X35	Y35	Z35	X36	Y36	Z36	X37	Y37	Z37	X38	Y38	Z38	X39	Y39	Z39	X40	Y40	Z40	X41	Y41	Z41	X42	Y42	Z42	X43	Y43	Z43	X44	Y44	Z44	X45	Y45	Z45	X46	Y46	Z46	X47	Y47	Z47	X48	Y48	Z48	X49	Y49	Z49	X50	Y50	Z50	X51	Y51	Z51	

173	0.71667	-525.23	1252.4	341.69	-668.27	1394.7	491.75	-631.92	1440.8	192.73	-700.59	1723.1	370.9	-573.61	995.04	431.13	-579.44	991.27	200.9	-779.09	1001.3	347.55	-773.69	1004.2	267.56	-627.97	923.21	508.89	-648.24	917.1	149.96	-674.13	1070.7	476	-646.71	1065.7	176.29	-797.73	967.85	313.24	-545.44	722.67	494.74	-474.26	667.31	446.27	-525.05	636.03	481.14	-494.85	756.08	454.2	-493.68	516.83	433.13	-515.29	525.29	308.64	-547.13	286.52	436.39	-482.18	226.91	410.97	-543.02	212.43	428.55	-480.06	304.67	418.34	-527.89	109.16	403.12	-522.09	120.46	323.96	-592.31	64.556	358.62	-582.75	35.92	332.42	-586.2	41.169	393.56	-413.5	40.773	436.9	-384.71	44.406	327.38	-326.74	61.626	369.53	-706.97	640.07	170.11	-635.53	555.56	174.87	-707.71	545.78	189.2	-629.11	643.84	155.1	-691.97	466.34	185.2	-646.77	444.95	307.41	-880.51	379.33	199.29	-908.61	271.72	201.07	-941.54	328.64	207.71	-853.91	322.79	190.9	-1019.8	226.7	217.41	-994.88	219.53	300.59	-1058.6	272.52	263.73	-1079.5	253.92	301.19	-1090.5	256.85	237.81	-1052.2	86.976	201.81	-1019.4	72.679	306.57	-991.47	35.453	260	-732.47	1471.2	344.3	-811.27	1263.8	307.83
174	0.72083	-520.04	1253.2	341.36	-662.48	1395.5	491.97	-627.54	1441.5	192.68	-695.21	1724	371.16	-568.08	995.56	431.43	-574.58	991.78	201.15	-773.77	1001.9	348.47	-768.64	1004.6	268.47	-622.39	923.88	509.56	-643.3	917.45	150.56	-668.26	1071.4	476.62	-641.81	1066.1	176.65	-792.58	968.39	314.3	-541.27	722.8	495.22	-470.45	666.93	446.86	-521.51	636.03	481.64	-490.4	755.86	454.76	-491.04	516.48	433.5	-512.78	525.13	309.11	-546.01	286.58	436.43	-481.37	226.55	411.24	-542.36	212.46	428.54	-478.74	304.25	418.6	-527.76	109.17	403.09	-521.74	120.52	323.95	-592.32	64.556	358.62	-582.76	35.916	332.44	-586.19	41.157	393.56	-413.49	40.802	436.92	-384.7	44.373	327.34	-326.74	61.56	369.53	-699.18	639.77	170.07	-626.56	556.12	173.81	-698.65	545.42	188.88	-621.47	644.48	154.35	-681.68	466.62	184.35	-635.23	444.79	306.37	-869.94	381.38	199.03	-899.12	274.08	200.44	-931.52	331.25	207.41	-844.49	324.66	190.02	-1010.5	229.84	216.94	-985.52	222.45	300.22	-1048	276.54	263.22	-1069.2	258.44	300.81	-1080.3	261.51	237.4	-1045.7	90.101	201.52	-1012.7	75.038	306.22	-986.2	35.849	259.31	-727.35	1471.9	344.78	-806.08	1264.4	308.82
175	0.725	-514.87	1254.1	340.99	-656.67	1396.4	492.17	-623.2	1442.1	192.6	-689.83	1724.9	371.39	-562.58	996.07	431.7	-569.77	992.31	201.38	-768.5	1002.6	349.41	-763.65	1005.1	269.38	-616.86	924.56	510.2	-638.42	917.84	151.14	-662.4	1072.1	477.22	-636.92	1066.4	177	-787.47	968.96	315.37	-537.19	722.92	495.68	-466.73	666.55	447.41	-518.08	636.03	482.13	-486.04	755.63	455.29	-488.49	516.13	433.86	-510.53	524.94	309.58	-544.95	286.63	436.48	-480.6	226.22	411.53	-541.74	212.49	428.54	-477.49	303.83	418.88	-527.64	109.17	403.07	-521.42	120.58	323.96	-592.32	64.562	358.62	-582.78	35.916	332.47	-586.19	41.145	393.56	-413.48	40.823	436.93	-384.69	44.344	327.32	-326.73	61.501	369.52	-691.42	639.58	170.03	-617.62	556.83	172.73	-689.63	545.21	188.57	-613.89	645.23	153.6	-671.39	467.06	183.5	-623.8	444.86	305.37	-859.33	383.43	198.75	-889.51	276.45	199.83	-921.39	333.84	207.12	-834.99	326.56	189.16	-1001	232.9	216.51	-976	225.31	299.86	-1037.4	280.33	262.78	-1058.9	262.64	300.48	-1070.1	265.88	237.02	-1038.7	93.184	201.18	-1005.5	77.378	305.8	-980.31	36.44	258.55	-722.23	1472.6	345.26	-800.91	1265	309.84
176	0.72917	-509.73	1255	340.57	-650.85	1397.2	492.37	-618.9	1442.8	192.5	-684.47	1725.7	371.59	-557.11	996.58	431.93	-565	992.84	201.59	-763.27	1003.2	350.35	-758.71	1005.6	270.3	-611.37	925.23	510.82	-633.62	918.28	151.7	-656.54	1072.8	477.79	-632.06	1066.8	177.34	-782.41	969.57	316.44	-533.2	723.06	496.13	-463.12	666.16	447.94	-514.73	636.03	482.61	-481.77	755.39	455.8	-486.02	515.8	434.2	-508.53	524.73	310.04	-543.94	286.68	436.54	-479.87	225.91	411.82	-541.15	212.52	428.55	-476.3	303.43	419.17	-527.52	109.17	403.06	-521.11	120.64	323.97	-592.34	64.575	358.63	-582.79	35.92	332.5	-586.2	41.134	393.57	-413.48	40.836	436.95	-384.68	44.318	327.29	-326.72	61.447	369.52	-683.7	639.52	170.01	-608.72	557.69	171.63	-680.63	545.14	188.27	-606.36	646.11	152.86	-661.11	467.65	182.64	-612.51	445.15	304.42	-848.7	385.49	198.46	-879.79	278.81	199.25	-911.16	336.38	206.85	-825.39	328.48	188.32	-991.46	235.87	216.12	-966.32	228.08	299.5	-1026.8	283.86	262.4	-1048.6	266.51	300.19	-1059.9	269.94	236.67	-1031.2	96.203	200.77	-997.79	79.677	305.31	-973.77	37.227	257.72	-717.12	1473.3	345.74	-795.78	1265.6	310.88
177	0.73333	-504.61	1255.9	340.1	-645.02	1398.1	492.55	-614.63	1443.5	192.37	-679.12	1726.6	371.77	-551.67	997.1	432.13	-560.26	993.39	201.77	-758.08	1004	351.29	-753.81	1006.2	271.23	-605.94	925.91	511.41	-628.88	918.77	152.25	-650.71	1073.5	478.34	-627.24	1067.2	177.65	-777.37	970.22	317.52	-529.27	723.19	496.55	-459.59	665.77	448.44	-511.47	636.03	483.07	-477.58	755.16	456.27	-483.62	515.48	434.52	-506.73	524.51	310.5	-542.97	286.73	436.62	-479.18	225.61	412.12	-540.59	212.56	428.58	-475.16	303.05	419.46	-527.41	109.17	403.06	-520.83	120.71	323.98	-592.35	64.593	358.64	-582.81	35.928	332.53	-586.2	41.122	393.58	-413.48	40.842	436.98	-384.68	44.294	327.27	-326.72	61.397	369.51	-676.01	639.58	169.99	-599.85	558.69	170.54	-671.65	545.22	187.98	-598.88	647.1	152.12	-650.84	468.38	181.77	-601.34	445.66	303.52	-838.06	387.54	198.16	-869.97	281.14	198.69	-900.84	338.88	206.6	-815.67	330.42	187.5	-981.79	238.75	215.78	-956.49	230.74	299.15	-1016.3	287.15	262.09	-1038.3	270.03	299.96	-1049.6	273.68	236.37	-1023.1	99.135	200.31	-989.54	81.914	304.75	-966.54	38.202	256.83	-712.01	1474.1	346.21	-790.68	1266.3	311.95
178	0.7375	-499.52	1256.7	339.59	-639.18	1399	492.71	-610.39	1444.2	192.23	-673.78	1727.6	371.93	-546.27	997.63	432.3	-555.57	993.96	201.94	-752.93	1004.7	352.23	-748.94	1006.8	272.15	-600.57	926.59	511.97	-624.2	919.31	152.78	-644.9	1074.3	478.86	-622.46	1067.6	177.96	-772.38	970.9	318.6	-525.42	723.34	496.94	-456.14	665.39	448.91	-508.27	636.05	483.5	-473.47	754.93	456.7	-481.27	515.19	434.83	-505.1	524.28	310.95	-542.03	286.77	436.71	-478.51	225.34	412.41	-540.05	212.6	428.62	-474.07	302.69	419.74	-527.3	109.18	403.07	-520.56	120.79	324.01	-592.37	64.616	358.65	-582.83	35.941	332.56	-586.2	41.112	393.59	-413.47	40.842	437	-384.67	44.272	327.26	-326.71	61.351	369.51	-668.33	639.75	169.98	-591.01	559.82	169.45	-662.68	545.45	187.7	-591.43	648.2	151.39	-640.57	469.25	180.89	-590.3	446.37	302.66	-827.42	389.58	197.85	-860.05	283.44	198.16	-890.44	341.31	206.38	-805.84	332.36	186.73	-972	241.52	215.49	-946.51	233.29	298.8	-1005.9	290.18	261.87	-1028	273.21	299.78	-1039.3	277.09	236.12	-1014.5	101.96	199.77	-980.78	84.069	304.12	-958.62	39.349	255.86	-706.9	1474.9	346.69	-785.61	1267	313.04
179	0.74167	-494.44	1257.6	339.05	-633.32	1399.9	492.87	-606.17	1444.9	192.07	-668.46	1728.5	372.06	-540.9	998.18	432.44	-550.91	994.57	202.09	-747.82	1005.5	353.17	-744.11	1007.4	273.07	-595.25	927.27	512.5	-619.58	919.91	153.29	-639.13	1075.1	479.35	-617.74	1068	178.25	-767.41	971.63	319.67	-521.63	723.49	497.31	-452.77	665.02	449.33	-505.14	636.07	483.91	-469.44	754.7	457.1	-478.97	514.92	435.1	-503.62	524.06	311.39	-541.11	286.82	436.81	-477.86	225.08	412.68	-539.52	212.65	428.67	-473.01	302.34	420	-527.19	109.18	403.09	-520.31	120.87	324.03	-592.39	64.645	358.66	-582.85	35.959	332.6	-586.21	41.102	393.6	-413.47	40.837	437.02	-384.67	44.252	327.25	-326.71	61.307	369.51	-660.66	640.05	169.97	-582.18	561.09	168.36	-653.72	545.81	187.43	-583.99	649.42	150.68	-630.32	470.26	180.02	-579.39	447.28	301.83	-816.8	391.61	197.54	-850.04	285.69	197.64	-879.97	343.67	206.19	-795.9	334.3	185.99	-962.1	244.16	215.25	-936.39	235.69	298.45	-995.48	292.94	261.74	-1017.7	276.02	299.65	-1029	280.17	235.93	-1005.4	104.66	199.17	-971.51	86.124	303.41	-950.01	40.641	254.82	-701.8	1475.7	347.17	-780.57	1267.7	314.15
